<svg width="48" height="48" viewBox="0 0 48 48" fill="none" xmlns="http://www.w3.org/2000/svg">
<path d="M19.9999 28L41.9999 6M19.9999 28L26.9999 42C27.0876 42.1915 27.2285 42.3537 27.4058 42.4675C27.5831 42.5813 27.7893 42.6417 27.9999 42.6417C28.2105 42.6417 28.4167 42.5813 28.594 42.4675C28.7713 42.3537 28.9121 42.1915 28.9999 42L41.9999 6M19.9999 28L5.9999 21C5.80841 20.9123 5.64615 20.7714 5.53239 20.5941C5.41863 20.4168 5.35815 20.2106 5.35815 20C5.35815 19.7894 5.41863 19.5832 5.53239 19.4059C5.64615 19.2286 5.80841 19.0877 5.9999 19L41.9999 6" stroke="white" stroke-width="2" stroke-linecap="round" stroke-linejoin="round"/>
</svg>
